<svg version="1.1" id="Layer_1" xmlns:x="ns_extend;" xmlns:i="ns_ai;" xmlns:graph="ns_graphs;" xmlns="http://www.w3.org/2000/svg" xmlns:xlink="http://www.w3.org/1999/xlink" x="0px" y="0px" viewBox="0 0 79 93.9" style="enable-background:new 0 0 79 93.9;" xml:space="preserve">
 <style type="text/css">
  .st0{fill:#A51C30;}
	.st1{fill:none;stroke:#000000;stroke-width:0.915;}
	.st2{fill:#FFFFFF;}
	.st3{fill:#1E1E1E;}
	.st4{fill:none;stroke:#000000;stroke-width:0.2189;}
	.st5{fill:none;stroke:#000000;stroke-width:0.2305;}
 </style>
 <metadata>
  <sfw xmlns="ns_sfw;">
   <slices>
   </slices>
   <sliceSourceBounds bottomLeftOrigin="true" height="93.9" width="79" x="13.2" y="-247.1">
   </sliceSourceBounds>
  </sfw>
 </metadata>
 <g>
  <g>
   <path class="st0" d="M0.6,0.5h78V30c0,13.5-5,42.2-38.7,63.5c0,0-36.5-15.3-39.3-63.5V0.5z">
   </path>
   <path class="st1" d="M0.5,0.5h78v29.5c0,13.5-5,42.1-38.7,63.5c0,0-36.5-15.2-39.3-63.5V0.5z">
   </path>
   <path class="st2" d="M59.7,38.4c0,0-0.7,2.2-3.8-0.1l-10.6-0.3c0,0-1.4,0.4-1.6-1c0,0,0.3-2.9,0.1-3.2c0,0,0.1-0.8-1.3-0.8
			c0,0-2.2,0.3-2.2-1.6c0,0-0.4-2,2.6-2c0,0,0.9,0.4,1-0.8c0,0-0.1-8.2-0.1-8.8c0,0,0.3-0.8-1.2-0.9c0,0-2.1,0.4-2.3-0.9
			c0,0-0.1-2.1,1.3-2.2c0,0,1.7,0.1,2-0.3c0,0,0.4,0.2,0.3-1.3l0.1-2.6c0,0,0.2-0.7,1.3-0.6c0,0,2,0.1,2.2-0.1c0,0,0.4-0.6,0.6-0.8
			c0,0,1-0.1,1.2,0.2c0,0,1.5,1,7.3,0.6c0,0,0.9,0,1.1,0.3c0,0,1.1,0.8,1.7-0.1c0,0,0.9-0.2,3.8-0.1c0,0,3.1,0.8,5.3-0.9l0.7,0.1
			c0,0,0.9,1.5,1.5,1c0,0,1.9-0.2,2.2,0.2c0,0,0.6,0.9,0.3,3.4c0,0-0.4,1.1,1.5,1.1c0,0,2.1-0.4,1.8,1.6c0,0,0.6,2.2-2.9,1.9
			c0,0-0.4,0.6-0.4,1.1c0,0-0.1,7.2-0.1,8c0,0-0.1,1.1,1.5,1.1c0,0,2-0.1,2.1,1.7c0,0,0.3,2.4-2.7,2c0,0-0.9,0.1-1,0.7l-0.1,3.2
			c0,0,0.1,1.6-1.7,1.2c-0.3,0-9.9,0.2-10.7-0.1C60.2,38.2,59.8,38.1,59.7,38.4">
   </path>
   <path class="st2" d="M39.2,49c0,0,0.4-0.2,0.6-0.5c0,0,1.3-0.1,1.5-0.3l4.2,0.3c0,0,4.1,0.3,5.9-1c0,0,0.6,0,1.1,0.2
			c0,0,0.9,0.2,1.1,0.6l2.4-0.1c0,0,1.4,0.4,1.3,1.3v1.1c0,0-0.3,2.3,0.4,2.4h1.8c0,0,1.5,0.7,1.3,1.6c0,0,0.1,1.3-1.3,1.5
			c0,0-1.3,0.4-1.8,0.3c0,0-0.4,0.6-0.5,1.3L57.1,66c0,0-0.1,0.9,1.2,0.8c0,0,2-0.2,2.5,0.9c0,0,0.5,1.8-0.5,2.1l-0.8,0.4l-1.6,0.3
			c0,0-0.7,0.1-0.8,1.3v2.2c0,0,0.1,1.5-1.1,1.5l-1.8,0.1c0,0-0.4,0.4-1.3,0.1c0,0-10.8,0.2-11.1,0.1L40.5,76c0,0-1.4,1.3-2.5,0.3
			l-0.9-0.7c0,0-0.6,0.1-0.9,0.1c-0.3-0.1-11.9,0.1-11.9,0.1s-2.5,0.3-2.7-0.6c0,0-0.3-3.2-0.2-3.6c0,0,0-0.9-0.6-1
			c0,0-2.5-0.1-2.5-0.4c0,0-1.3-0.9-0.9-1.9c0,0,0.4-1.3,1.8-1.4c0,0,2,0.3,2-0.3c0,0,0.1-0.4,0.1-1c0,0,0.1-7.5,0.1-8
			c0,0,0.2-1-0.6-1c0,0-0.9,0.3-1.5-0.1c0,0-1.5,0.1-1.8-1.1c0,0-0.3-0.8,0.1-1.4c0,0,0.7-1.4,2.7-0.9c0,0,1.1,0.3,1.3-0.5l-0.1-3
			c0,0-0.3-0.8,1.3-1.3c0,0,2,0.6,2.7-0.4c0,0,0.7-1.4,1.3-0.4c0,0,1.2,1.1,4.5,1c0,0,5.7-0.4,5.8-0.2c0,0,1.4,0.2,1.8,0.6L39.2,49z
			">
   </path>
   <path class="st2" d="M22,38.4c0,0-0.7,2.2-3.8-0.1L7.6,38.1c0,0-1.4,0.4-1.6-1c0,0,0.3-2.9,0.1-3.2c0,0,0.1-0.8-1.3-0.8
			c0,0-2.1,0.3-2.2-1.6c0,0-0.4-2,2.6-2c0,0,0.9,0.4,1-0.8c0,0-0.1-8.2-0.1-8.9c0,0,0.3-0.8-1.2-0.9c0,0-2.1,0.4-2.3-1
			c0,0-0.1-2.1,1.3-2.2c0,0,1.7,0.1,2-0.3c0,0,0.4,0.2,0.3-1.3l0.1-2.6c0,0,0.2-0.7,1.3-0.6c0,0,2,0.1,2.2-0.1c0,0,0.4-0.6,0.6-0.8
			c0,0,1-0.1,1.2,0.2c0,0,1.5,1,7.3,0.6c0,0,0.9,0,1.1,0.3c0,0,1.1,0.8,1.7-0.1c0,0,0.9-0.2,3.8-0.1c0,0,3.1,0.8,5.2-0.9l0.7,0.1
			c0,0,0.9,1.5,1.5,1c0,0,1.9-0.2,2.2,0.2c0,0,0.6,0.9,0.3,3.4c0,0-0.4,1.1,1.5,1.1c0,0,2.1-0.4,1.8,1.6c0,0,0.6,2.2-2.9,1.9
			c0,0-0.4,0.6-0.4,1.1c0,0-0.1,7.2-0.1,8c0,0-0.1,1.1,1.5,1.1c0,0,2-0.1,2.1,1.7c0,0,0.3,2.4-2.7,2c0,0-0.9,0.1-1,0.7L35,37.1
			c0,0,0.1,1.6-1.7,1.2c-0.3,0-9.9,0.2-10.7-0.1C22.6,38.2,22.2,38.1,22,38.4">
   </path>
   <path class="st3" d="M59.7,38.4c0,0-0.7,2.2-3.8-0.1l-10.6-0.3c0,0-1.4,0.4-1.6-1c0,0,0.3-2.9,0.1-3.2c0,0,0.1-0.8-1.3-0.8
			c0,0-2.2,0.3-2.2-1.6c0,0-0.4-2,2.6-2c0,0,0.9,0.4,1-0.8c0,0-0.1-8.2-0.1-8.8c0,0,0.3-0.8-1.2-0.9c0,0-2.1,0.4-2.3-0.9
			c0,0-0.1-2.1,1.3-2.2c0,0,1.7,0.1,2-0.3c0,0,0.4,0.2,0.3-1.3l0.1-2.6c0,0,0.2-0.7,1.3-0.6c0,0,2,0.1,2.2-0.1c0,0,0.4-0.6,0.6-0.8
			c0,0,1-0.1,1.2,0.2c0,0,1.5,1,7.3,0.6c0,0,0.9,0,1.1,0.3c0,0,1.1,0.8,1.7-0.1c0,0,0.9-0.2,3.8-0.1c0,0,3.1,0.8,5.3-0.9l0.7,0.1
			c0,0,0.9,1.5,1.5,1c0,0,1.9-0.2,2.2,0.2c0,0,0.6,0.9,0.3,3.4c0,0-0.4,1.1,1.5,1.1c0,0,2.1-0.4,1.8,1.6c0,0,0.6,2.2-2.9,1.9
			c0,0-0.4,0.6-0.4,1.1c0,0-0.1,7.2-0.1,8c0,0-0.1,1.1,1.5,1.1c0,0,2-0.1,2.1,1.7c0,0,0.3,2.4-2.7,2c0,0-0.9,0.1-1,0.7l-0.1,3.2
			c0,0,0.1,1.6-1.7,1.2c-0.3,0-9.9,0.2-10.7-0.1C60.2,38.2,59.8,38.1,59.7,38.4">
   </path>
   <path class="st4" d="M59.7,38.4c0,0-0.7,2.2-3.8-0.1l-10.6-0.3c0,0-1.4,0.4-1.6-1c0,0,0.3-2.9,0.1-3.2c0,0,0.1-0.8-1.3-0.8
			c0,0-2.2,0.3-2.2-1.6c0,0-0.4-2,2.6-2c0,0,0.9,0.4,1-0.8c0,0-0.1-8.2-0.1-8.8c0,0,0.3-0.8-1.2-0.9c0,0-2.1,0.4-2.3-0.9
			c0,0-0.1-2.1,1.3-2.2c0,0,1.7,0.1,2-0.3c0,0,0.4,0.2,0.3-1.3l0.1-2.6c0,0,0.2-0.7,1.3-0.6c0,0,2,0.1,2.2-0.1c0,0,0.4-0.6,0.6-0.8
			c0,0,1-0.1,1.2,0.2c0,0,1.5,1,7.3,0.6c0,0,0.9,0,1.1,0.3c0,0,1.1,0.8,1.7-0.1c0,0,0.9-0.2,3.8-0.1c0,0,3.1,0.8,5.3-0.9l0.7,0.1
			c0,0,0.9,1.5,1.5,1c0,0,1.9-0.2,2.2,0.2c0,0,0.6,0.9,0.3,3.4c0,0-0.4,1.1,1.5,1.1c0,0,2.1-0.4,1.8,1.6c0,0,0.6,2.2-2.9,1.9
			c0,0-0.4,0.6-0.4,1.1c0,0-0.1,7.2-0.1,8c0,0-0.1,1.1,1.5,1.1c0,0,2-0.1,2.1,1.7c0,0,0.3,2.4-2.7,2c0,0-0.9,0.1-1,0.7l-0.1,3.2
			c0,0,0.1,1.6-1.7,1.2c-0.3,0-9.9,0.2-10.7-0.1C60.2,38.2,59.8,38.1,59.7,38.4z">
   </path>
   <path class="st2" d="M47.7,12.3c0,0,0.1,1.3,0.1,1.6c0,0.3-0.2,18.3-0.2,18.3s0.2,1.4-1,2.1c0,0-0.3,0.1-0.4-0.8l0.1-19
			C46.4,14.5,46.5,12.2,47.7,12.3">
   </path>
   <path class="st5" d="M47.7,12.3c0,0,0.1,1.3,0.1,1.6c0,0.3-0.2,18.3-0.2,18.3s0.2,1.4-1,2.1c0,0-0.3,0.1-0.4-0.8l0.1-19
			C46.4,14.5,46.5,12.2,47.7,12.3z">
   </path>
   <path class="st2" d="M45.6,34.5c0,0,0.1-17.8,0.1-18.1c-0.1-0.3,0.1,0.3,0.1,0.3s-0.2-3.1,0.6-4.4c0,0-0.3-1.1-1.7,0.3L44.6,15
			c0,0,0,1.5-1.3,1.4c0,0-1.5-0.1-2.2,0.6c0,0-0.4,1.4,1.1,1.1c0,0,2.3,0,2.4,0.9l-0.1,9.6c0,0,0.5,1.6-1.3,1.6c0,0-2.2-0.1-2.1,1.2
			c0,0,0.4,1.1,2.3,0.8c0,0,1.3,0.2,1.3,1.5v2.4c0,0-0.1,1,1.1,1h9.9c0,0,0.5,0.1,0.5-0.6c0,0-0.1-0.5-0.8-0.5L47.1,36
			C47.1,36,45.7,36.4,45.6,34.5">
   </path>
   <path class="st2" d="M47.5,34.4c0,0-0.3,0.9,0.7,0.7h6.5l1.8,0.4c0,0,1.8-0.4,0-1.5c0,0-5.8,0.1-6.3-0.1c0,0-1.2-0.3-1.5-0.4
			C48.7,33.6,48.1,33.4,47.5,34.4">
   </path>
   <path class="st5" d="M47.5,34.4c0,0-0.3,0.9,0.7,0.7h6.5l1.8,0.4c0,0,1.8-0.4,0-1.5c0,0-5.8,0.1-6.3-0.1c0,0-1.2-0.3-1.5-0.4
			C48.7,33.6,48.1,33.4,47.5,34.4z">
   </path>
   <path class="st2" d="M58.3,35.3c0,0-1.2,0-1.1,1.6c0,0,0.1,1.2,1.4,1.2c0,0,1.1-0.2,1-1.5C59.6,36.7,58.9,35.1,58.3,35.3">
   </path>
   <path class="st2" d="M59.2,34.7c0,0,0.6-0.6,0.9-0.6c0,0,6.3,0.6,7.4-0.2c0,0,1-0.2,1.2,0c0,0,0.9,0.8,0.9,1.2
			c0,0-0.1,0.6-1.2,0.2c0,0-7.1,0.1-7.5,0.1C61,35.4,59,35.8,59.2,34.7">
   </path>
   <path class="st5" d="M59.2,34.7c0,0,0.6-0.6,0.9-0.6c0,0,6.3,0.6,7.4-0.2c0,0,1-0.2,1.2,0c0,0,0.9,0.8,0.9,1.2
			c0,0-0.1,0.6-1.2,0.2c0,0-7.1,0.1-7.5,0.1C61,35.4,59,35.8,59.2,34.7z">
   </path>
   <path class="st2" d="M60,36.7c0,0,0-0.5,0.9-0.5l8.9-0.1c0,0,0.8,0.4,0.8-1.1c0,0,0.3-6.9,0.4-14.5c0-2.3,0.1-4.6,0-6.8
			c0,0-0.2-0.9-0.4-1.1c0,0,0-1,1.1-0.6c0,0,0.9,0.1,0.7,1.5l0.1,2.2c0,0-0.2,1,1.5,0.7c0,0,1.7,0.3,1.8,0.9c0,0,0.5,1.3-1.5,1.1
			h-1.5c0,0-0.6,0.4-0.4,1.1L72,28.8c0,0-0.1,1.6,1.4,1.5c0,0,1.6-0.1,1.9,0.4c0,0,1.1,1.6-1.3,1.5c0,0-1.5-0.1-1.8,0.2
			c0,0-0.3,0.3-0.4,3.3c0,0,0.1,1.8-1.2,1.6c0,0-8.8,0.1-9.6-0.1C61,37.2,60.2,37.4,60,36.7">
   </path>
   <path class="st2" d="M48.7,11.8l-0.2,20.3c0,0-0.1,0.9,1.5,1.1c0,0,1.8,0.2,2.3,0c0,0,1.2-0.1,4.3,0.1c0,0,0.8,0.8,0.8-0.2
			c0,0,0.5-16.4,0.3-19.9c0,0-0.1-1.5-1.1-1.5c0,0-4.8,0.4-5.2,0l-1.9-0.5C49.3,11.2,48.6,11.3,48.7,11.8">
   </path>
   <path class="st2" d="M58.6,12.8c0,0-0.2,9.5-0.1,9.9l-0.1,8l-0.3,2.8c0,0,0.4,0.6,0.7,0.2c0,0,2-0.5,3.3-0.3c0,0,4.1,0.4,4.9-0.3
			c0,0,0.6,0.3,0.8-0.7c0,0,0.2-17.7,0.1-18c0,0,0.2-2.5,0.1-2.8c0,0-0.1-0.6-1.1-0.1c0,0,0.1,0.5-5.9,0.3
			C61,11.8,58.8,11.8,58.6,12.8">
   </path>
   <path class="st2" d="M68.7,12.5l-0.1,20c0,0,0.5,1.8,1.3,1.6c0,0,0.1-0.4,0.2-1l0.3-19C70.4,14,69.8,11,68.7,12.5">
   </path>
   <path class="st5" d="M68.7,12.5l-0.1,20c0,0,0.5,1.8,1.3,1.6c0,0,0.1-0.4,0.2-1l0.3-19C70.4,14,69.8,11,68.7,12.5z">
   </path>
   <path class="st3" d="M60.9,18.5C60.7,18,62,17.9,62,17.9l0.6,0.1c0.4-0.1,0.9,0.1,0.9,0.1c0.4,0.7-0.3,1.1-0.3,1.1L63,20.1
			c-0.1,0.7,0,6.7,0,6.7c0.1,0.3,0.6,0.9,0.6,0.9c0,0.6-0.7,0.4-0.7,0.4l-1.8,0.1c-0.6-0.1-0.4-0.7-0.4-0.7c0.6-0.3,0.8-1.5,0.8-1.5
			v-6.3L60.9,18.5z">
   </path>
   <path class="st3" d="M52.4,24.4l-0.1,2l0.6,0.9c0.4,0.5-0.3,0.9-0.3,0.9l-2-0.2c-0.4-0.2,0-0.8,0-0.8c0.5-0.3,0.6-1.1,0.6-1.1
			l-0.1-3.7l0.1-2.7c0-0.3-0.5-0.9-0.5-0.9c-0.4-0.1-0.3-0.6-0.3-0.6c0.1-0.3,1.2-0.1,1.2-0.1h2.7c2.5,0.8,2.2,2.7,2.2,2.7
			c0.2,1.8-1.8,2.6-1.8,2.6l-0.1,1l1.8,2.9c0.3,0.3,0.3,0.5,0.3,0.5c-0.3,0.7-1.3,0-1.3,0L53,24.2C52.8,23.9,52.4,24.4,52.4,24.4
			 M52.5,19.4c0.1,1.4,0.1,3.3,0.1,3.3c1.2,0.9,1.9-0.4,1.9-0.4c1.6-1.5,0-2.9-0.3-3.3c-0.3-0.4-1.5-0.1-1.5-0.1L52.5,19.4z">
   </path>
   <path class="st3" d="M39.2,49c0,0,0.4-0.2,0.6-0.5c0,0,1.3-0.1,1.5-0.3l4.2,0.3c0,0,4.1,0.3,5.9-1c0,0,0.6,0,1.1,0.2
			c0,0,0.9,0.2,1.1,0.6l2.4-0.1c0,0,1.4,0.4,1.3,1.3v1.1c0,0-0.3,2.3,0.4,2.4h1.8c0,0,1.5,0.7,1.3,1.6c0,0,0.1,1.3-1.3,1.5
			c0,0-1.3,0.4-1.8,0.3c0,0-0.4,0.6-0.5,1.3L57.1,66c0,0-0.1,0.9,1.2,0.8c0,0,2-0.2,2.5,0.9c0,0,0.5,1.8-0.5,2.1l-0.8,0.4l-1.6,0.3
			c0,0-0.7,0.1-0.8,1.3v2.2c0,0,0.1,1.5-1.1,1.5l-1.8,0.1c0,0-0.4,0.4-1.3,0.1c0,0-10.8,0.2-11.1,0.1L40.5,76c0,0-1.4,1.3-2.5,0.3
			l-0.9-0.7c0,0-0.6,0.1-0.9,0.1c-0.3-0.1-11.9,0.1-11.9,0.1s-2.5,0.3-2.7-0.6c0,0-0.3-3.2-0.2-3.6c0,0,0-0.9-0.6-1
			c0,0-2.5-0.1-2.5-0.4c0,0-1.3-0.9-0.9-1.9c0,0,0.4-1.3,1.8-1.4c0,0,2,0.3,2-0.3c0,0,0.1-0.4,0.1-1c0,0,0.1-7.5,0.1-8
			c0,0,0.2-1-0.6-1c0,0-0.9,0.3-1.5-0.1c0,0-1.5,0.1-1.8-1.1c0,0-0.3-0.8,0.1-1.4c0,0,0.7-1.4,2.7-0.9c0,0,1.1,0.3,1.3-0.5l-0.1-3
			c0,0-0.3-0.8,1.3-1.3c0,0,2,0.6,2.7-0.4c0,0,0.7-1.4,1.3-0.4c0,0,1.2,1.1,4.5,1c0,0,5.7-0.4,5.8-0.2c0,0,1.4,0.2,1.8,0.6L39.2,49z
			">
   </path>
   <path class="st4" d="M39.2,48.9c0,0,0.4-0.2,0.6-0.5c0,0,1.3-0.1,1.5-0.3l4.2,0.3c0,0,4.1,0.3,5.9-1c0,0,0.6,0,1.1,0.2
			c0,0,0.9,0.2,1.1,0.6l2.4-0.1c0,0,1.4,0.4,1.3,1.3v1.1c0,0-0.3,2.3,0.4,2.4h1.8c0,0,1.5,0.7,1.3,1.6c0,0,0.1,1.3-1.3,1.5
			c0,0-1.3,0.4-1.8,0.3c0,0-0.4,0.6-0.5,1.3L57.1,66c0,0-0.1,0.9,1.2,0.8c0,0,2-0.2,2.5,0.9c0,0,0.5,1.8-0.5,2.1l-0.8,0.4l-1.6,0.3
			c0,0-0.7,0.1-0.8,1.3v2.2c0,0,0.1,1.5-1.1,1.5l-1.8,0.1c0,0-0.4,0.4-1.3,0.1c0,0-10.8,0.2-11.1,0.1l-1.3,0.3c0,0-1.4,1.3-2.5,0.3
			l-0.9-0.7c0,0-0.6,0.1-0.9,0.1c-0.3-0.1-11.9,0.1-11.9,0.1s-2.5,0.3-2.7-0.6c0,0-0.3-3.2-0.2-3.6c0,0,0-0.9-0.6-1
			c0,0-2.5-0.1-2.5-0.4c0,0-1.3-1-0.9-1.9c0,0,0.4-1.3,1.8-1.4c0,0,2,0.3,2-0.3c0,0,0.1-0.4,0.1-1c0,0,0.1-7.5,0.1-8
			c0,0,0.2-1-0.6-1c0,0-0.9,0.3-1.5-0.1c0,0-1.5,0.1-1.8-1.1c0,0-0.3-0.8,0.1-1.4c0,0,0.7-1.4,2.7-0.9c0,0,1.1,0.3,1.3-0.5l-0.1-3
			c0,0-0.3-0.8,1.3-1.3c0,0,2,0.6,2.7-0.4c0,0,0.7-1.4,1.3-0.4c0,0,1.2,1.1,4.5,1c0,0,5.7-0.4,5.8-0.2c0,0,1.4,0.2,1.8,0.6
			L39.2,48.9z">
   </path>
   <path class="st2" d="M40.9,73.8c0,0,0.8-0.4,1.3-0.2c0.5,0.1,7.9-0.1,7.9-0.1s3.2,0.3,3.7-0.2l0.8-0.3c0,0,0.3-0.4,0.3-0.9
			c0-0.5,0.1-2.2,0.1-2.2l0.2-0.6c0,0-0.1-0.6,0-17.5c0,0,0.2-1.3-0.6-2.1c0,0,0-0.5,0.3-0.4c0.3,0.1,0.1,0.1,0.1,0.1
			s1.1-0.3,1.3,0.1c0,0,0.5,1.5,0.1,2.4c0,0-0.1,1.8,0.8,1.8c0,0,0.4,0.4,1.1,0.2c0,0,1.6,0.2,1.6,0.7c0,0,0,1.1-1.1,0.9l-1.5,0.1
			c0,0-1,0.2-0.9,1.4c0.1,1.2-0.1,9.8-0.1,9.8s0,1,1.6,1c0,0,2-0.1,2,0.5c0,0,0.5,1.3-0.9,1.3c0,0-2.7-0.1-2.5,0.7
			c0,0-0.2,1.8-0.3,2.1c0,0,0.3,1.5-0.1,1.7c0,0-0.2,0.8-1.9,0.7c0,0-10.9-0.1-12.6,0.1C41.6,74.8,40.6,74.7,40.9,73.8">
   </path>
   <path class="st2" d="M38.9,72.6c0,0,1.1,0.2,1.1,1.2c0,1,0.1,1.6-0.6,1.7c-0.6,0.1-1.3-0.1-1.5-0.9C37.7,73.8,38,72.8,38.9,72.6">
   </path>
   <path class="st2" d="M40.2,72.1c0,0,1.1-0.8,1.6-0.6c0,0,5.8,0.4,7.5,0.1c1.8-0.3,0.7-0.1,0.7-0.1s1.5,0,2-0.6
			c0,0,0.4-0.1,0.7,0.3l0.9,1c0,0,0.1,0.6-1,0.6c0,0-10.3,0-10.6,0.1C41.9,72.9,40,73.2,40.2,72.1">
   </path>
   <path class="st5" d="M40.2,72.1c0,0,1.1-0.8,1.6-0.6c0,0,5.8,0.4,7.5,0.1c1.8-0.3,0.7-0.1,0.7-0.1s1.5,0,2-0.6
			c0,0,0.4-0.1,0.7,0.3l0.9,1c0,0,0.1,0.6-1,0.6c0,0-10.3,0-10.6,0.1C41.9,72.9,40,73.2,40.2,72.1z">
   </path>
   <path class="st2" d="M25.2,49.7c0,0,0.4,0,0.4,0.8l-0.1,19.1c0,0,0.2,1.3-0.9,2.1c0,0-0.6,0.7-0.6-0.4l0.3-19.5
			C24.2,51.7,24.3,50.3,25.2,49.7">
   </path>
   <path class="st5" d="M25.2,49.7c0,0,0.4,0,0.4,0.8l-0.1,19.1c0,0,0.2,1.3-0.9,2.1c0,0-0.6,0.7-0.6-0.4l0.3-19.5
			C24.2,51.7,24.3,50.3,25.2,49.7z">
   </path>
   <path class="st2" d="M24.2,49.8c0,0-0.8,1.4-0.7,1.7l-0.1,4.2c0,0-0.1,2.7,0,3c0.1,0.3-0.1,8.3-0.1,8.3s-0.1,1.5,0,2v3.4
			c0,0-0.1,1.5,1,1.1c0,0,11.1-0.3,11.8-0.1c0,0,1,0.2,0.6,0.7c0,0,0,0.4-0.7,0.3c0,0-5.2,0.5-10,0.3c0,0-3.2,0.2-3.4-0.2
			c0,0-0.5-0.1-0.5-1.9c0,0,0-1.7-0.1-2c0,0,0.1-0.9-1.5-1.1c0,0-2.2,0.4-2.3-0.9c0,0,0.3-0.9,2.5-0.8c0,0,1.6,0.3,1.3-1l0.2-9.4
			c0,0,0.2-1.6-0.9-1.7c0,0-1-0.1-1.3,0.1c0,0-1.8,0-1.7-1.1c0,0,0.6-1.1,2.5-0.9c0,0,1.4,0.3,1.5-1.3c0,0-0.1-3.2,0.7-3.4
			C23,49.3,24.6,49.3,24.2,49.8">
   </path>
   <path class="st2" d="M26.1,70.7c0,0,0.9,0.9,2.3,0.9l8.6,0.1c0,0,1,0.1,0.9,0.6c0,0-0.1,0.8-1.3,0.5l-10.4-0.1l-1.1,0.1
			c0,0-0.8-0.1,0.4-1.6L26.1,70.7z">
   </path>
   <path class="st5" d="M26.1,70.7c0,0,0.9,0.9,2.3,0.9l8.6,0.1c0,0,1,0.1,0.9,0.6c0,0-0.1,0.8-1.3,0.5l-10.4-0.1l-1.1,0.1
			c0,0-0.8-0.1,0.4-1.6L26.1,70.7z">
   </path>
   <path class="st2" d="M52.6,69.9c0,0,0.8,1.5,1.1,1.7c0,0,0.7,0.8,0.5-0.6l0.1-18.2c0,0-0.2-0.6,0-1.6l-0.8-1.4
			c0,0-0.8-0.6-0.8,0.4l-0.1,19.4L52.6,69.9z">
   </path>
   <path class="st5" d="M52.6,69.9c0,0,0.8,1.5,1.1,1.7c0,0,0.7,0.8,0.5-0.6l0.1-18.2c0,0-0.2-0.6,0-1.6l-0.8-1.4
			c0,0-0.8-0.6-0.8,0.4l-0.1,19.4L52.6,69.9z">
   </path>
   <path class="st2" d="M38.6,61.2c0,0,0.1,1.5-0.1,3c-0.1,0.8,0.3,4.5-0.1,6.4c0,0-0.1,0.6-1.4,0.1c0,0-8.1,0.2-8.3-0.1
			c0,0-2.2,0.1-2.4-1.1c0,0,0.3-8.7,0.1-9c0,0-0.1-4.7,0-5.2c0,0,0.2-4.4,0.1-4.9c0,0,0.1-1-0.1-1.5c0,0,0-0.6,1.1-0.3
			c0,0,0.4,0.7,2.5,0.4c0,0,1.5,0.2,3,0.1c0,0,3.2-0.3,4,0c0,0,1.3-0.3,1.6,1.1l-0.1,3.9l0.4,1.3l0.4-0.3l0.2-1l0.1-4.2
			c0,0,0.3-0.8,1.3-0.9c0,0,1.6-0.2,1.8-0.1c0.2,0.1,3.7,0.3,4.6,0.1c0.9-0.2,1.1,0.6,4-0.8c0,0,0.8,0.1,0.8,0.6c0,0-0.3,5.4,0,6.4
			c0,0,0,9.9-0.2,10.6l0.1,3.2c0,0,0.1,1.4-2.1,1.5c0,0,1.4,0.2-7.3-0.1c0,0-1.4-0.1-2.9,0.6c0,0-0.3-0.1-0.3-0.9c0,0,0.3-3,0-5.9
			l-0.1-3.2L38.6,61.2z">
   </path>
   <path class="st3" d="M32.9,56.7c0,0,0.2,4.7,0,5.3l-0.1,1c0,0,0.3,0.7,0.6,0.9c0,0,0.3,0.9-0.4,0.8c0,0-1.6-0.1-2-0.1
			c0,0-0.9,0,0-1.1c0,0,0.3-0.4,0.2-1.6c0,0,0-5.3,0.1-5.6c0,0,0.1-0.7-0.3-0.9l-0.8,0.1l-0.9,0.9c0,0-0.2,0.9-0.6-0.1v-0.5l0.6-1.5
			l0.4-0.1c0,0,0.6,0.4,1.1,0.5h3l1.1-0.5c0,0,0.4,0.1,0.3,0.6c0,0,0.2,1.5-0.6,1.6c0,0-0.5-0.2-0.8-0.9
			C33.8,55.7,33,55.3,32.9,56.7">
   </path>
   <path class="st3" d="M46.9,55c0,0-2.4-0.2-2.5,2.4c0,0-0.3,1.8,2.4,2.9c0,0,2,0.9,1.8,2.1c0,0-0.3,2.2-2.3,1.1c0,0-1-0.5-0.9-1.1
			c0,0-0.3-0.7-0.7-0.6c0,0-0.4,0.1-0.2,2.2c0,0,0,0.8,0.9,0l0.5,0.1c0,0,1.7,1.4,3.2-0.3c0,0,1.6-1.5,0.4-3.2c0,0-0.8-1.3-2.3-1.9
			c0,0-1.4-0.6-1.7-1.7c0,0,0.4-1.9,2.1-0.9c0,0,0.6,0.8,1,0.9c0,0,0.5,0,0.4-1.1L48.9,55c0,0-0.1-0.7-1,0
			C47.9,55,47.1,55.3,46.9,55">
   </path>
   <path class="st3" d="M39.2,53.7c0.4,0.3,0.5,1,0.5,1c1.3,3.4,2.3,8.2,2.3,8.2c0.3,0.6,0.9,1.1,0.9,1.1c1.1,0.4,0,0.7,0,0.7
			c-0.4,0.2-1.9-0.1-1.9-0.1c-0.8-0.1-0.4-0.4-0.4-0.4c0.3-0.3,0.1-1.6,0.1-1.6c-0.1-0.5-0.6-1.3-0.6-1.3c-0.3-0.1-0.7,0.4-0.7,0.4
			s-0.7,0.3-0.8,0c-0.1-0.3-0.5-0.5-0.5-0.5c-0.8,0-1.1,1.9-1.1,1.9c0.4,1.6,0,1.3,0,1.3c-0.4,0.5-1.6,0.1-1.6,0.1
			c-0.6-0.1-0.2-0.6-0.2-0.6c0.7-0.1,0.9-0.9,0.9-0.9c0.3-0.4,2.3-8.7,2.3-8.7C38.6,54.1,38.7,53.4,39.2,53.7 M38.2,57.9
			c-0.1,0.3-0.5,2.1-0.5,2.1l0.4,0.6c0,0,1,0.1,1.4,0.1c0.4,0,0.4-0.3,0.4-0.6c0-0.3-0.7-2.2-0.7-2.2l-0.3-0.4L38.2,57.9z">
   </path>
   <path class="st3" d="M22,38.4c0,0-0.7,2.2-3.8-0.1L7.6,38.1c0,0-1.4,0.4-1.6-1c0,0,0.3-2.9,0.1-3.2c0,0,0.1-0.8-1.3-0.8
			c0,0-2.1,0.3-2.2-1.6c0,0-0.4-2,2.6-2c0,0,0.9,0.4,1-0.8c0,0-0.1-8.2-0.1-8.9c0,0,0.3-0.8-1.2-0.9c0,0-2.1,0.4-2.3-1
			c0,0-0.1-2.1,1.3-2.2c0,0,1.7,0.1,2-0.3c0,0,0.4,0.2,0.3-1.3l0.1-2.6c0,0,0.2-0.7,1.3-0.6c0,0,2,0.1,2.2-0.1c0,0,0.4-0.6,0.6-0.8
			c0,0,1-0.1,1.2,0.2c0,0,1.5,1,7.3,0.6c0,0,0.9,0,1.1,0.3c0,0,1.1,0.8,1.7-0.1c0,0,0.9-0.2,3.8-0.1c0,0,3.1,0.8,5.2-0.9l0.7,0.1
			c0,0,0.9,1.5,1.5,1c0,0,1.9-0.2,2.2,0.2c0,0,0.6,0.9,0.3,3.4c0,0-0.4,1.1,1.5,1.1c0,0,2.1-0.4,1.8,1.6c0,0,0.6,2.2-2.9,1.9
			c0,0-0.4,0.6-0.4,1.1c0,0-0.1,7.2-0.1,8c0,0-0.1,1.1,1.5,1.1c0,0,2-0.1,2.1,1.7c0,0,0.3,2.4-2.7,2c0,0-0.9,0.1-1,0.7L35,37.1
			c0,0,0.1,1.6-1.7,1.2c-0.3,0-9.9,0.2-10.7-0.1C22.6,38.2,22.2,38.1,22,38.4">
   </path>
   <path class="st4" d="M22,38.4c0,0-0.7,2.2-3.8-0.1L7.6,38.1c0,0-1.4,0.4-1.6-1c0,0,0.3-2.9,0.1-3.2c0,0,0.1-0.8-1.3-0.8
			c0,0-2.1,0.3-2.2-1.6c0,0-0.4-2,2.6-2c0,0,0.9,0.4,1-0.8c0,0-0.1-8.2-0.1-8.9c0,0,0.3-0.8-1.2-0.9c0,0-2.1,0.4-2.3-1
			c0,0-0.1-2.1,1.3-2.2c0,0,1.7,0.1,2-0.3c0,0,0.4,0.2,0.3-1.3l0.1-2.6c0,0,0.2-0.7,1.3-0.6c0,0,2,0.1,2.2-0.1c0,0,0.4-0.6,0.6-0.8
			c0,0,1-0.1,1.2,0.2c0,0,1.5,1,7.3,0.6c0,0,0.9,0,1.1,0.3c0,0,1.1,0.8,1.7-0.1c0,0,0.9-0.2,3.8-0.1c0,0,3.1,0.8,5.2-0.9l0.7,0.1
			c0,0,0.9,1.5,1.5,1c0,0,1.9-0.2,2.2,0.2c0,0,0.6,0.9,0.3,3.4c0,0-0.4,1.1,1.5,1.1c0,0,2.1-0.4,1.8,1.6c0,0,0.6,2.2-2.9,1.9
			c0,0-0.4,0.6-0.4,1.1c0,0-0.1,7.2-0.1,8c0,0-0.1,1.1,1.5,1.1c0,0,2-0.1,2.1,1.7c0,0,0.3,2.4-2.7,2c0,0-0.9,0.1-1,0.7L35,37.1
			c0,0,0.1,1.6-1.7,1.2c-0.3,0-9.9,0.2-10.7-0.1C22.6,38.2,22.2,38.1,22,38.4z">
   </path>
   <path class="st2" d="M10.1,12.3c0,0,0.1,1.3,0.1,1.6c0,0.3-0.2,18.3-0.2,18.3s0.2,1.4-1,2.1c0,0-0.3,0.1-0.4-0.8l0.1-19
			C8.8,14.5,8.9,12.2,10.1,12.3">
   </path>
   <path class="st5" d="M10.1,12.3c0,0,0.1,1.3,0.1,1.6c0,0.3-0.2,18.3-0.2,18.3s0.2,1.4-1,2.1c0,0-0.3,0.1-0.4-0.8l0.1-19
			C8.8,14.5,8.9,12.2,10.1,12.3z">
   </path>
   <path class="st2" d="M8,34.5c0,0,0.1-17.8,0.1-18.2C8,16,8.1,16.6,8.1,16.6s-0.2-3.1,0.6-4.4c0,0-0.3-1.1-1.7,0.3L7,15.1
			c0,0,0,1.5-1.3,1.4c0,0-1.5-0.1-2.2,0.6c0,0-0.4,1.4,1.1,1.1c0,0,2.3,0,2.4,0.9l-0.1,9.6c0,0,0.5,1.6-1.3,1.6c0,0-2.1-0.1-2.1,1.2
			c0,0,0.4,1.1,2.3,0.8c0,0,1.3,0.3,1.3,1.5v2.4c0,0-0.1,1,1.1,1H18c0,0,0.5,0.1,0.5-0.6c0,0-0.1-0.5-0.8-0.5L9.5,36
			C9.5,36,8.1,36.4,8,34.5">
   </path>
   <path class="st2" d="M9.7,34.6c0,0-0.3,0.9,0.7,0.7h6.5l1.8,0.4c0,0,1.8-0.4,0-1.5c0,0-5.8,0.1-6.3-0.1c0,0-1.2-0.3-1.5-0.4
			C10.9,33.8,10.3,33.5,9.7,34.6">
   </path>
   <path class="st5" d="M9.7,34.6c0,0-0.3,0.9,0.7,0.7h6.5l1.8,0.4c0,0,1.8-0.4,0-1.5c0,0-5.8,0.1-6.3-0.1c0,0-1.2-0.3-1.5-0.4
			C10.9,33.8,10.3,33.5,9.7,34.6z">
   </path>
   <path class="st2" d="M20.5,35.5c0,0-1.2,0-1.1,1.6c0,0,0.1,1.2,1.4,1.2c0,0,1.1-0.2,1-1.5C21.8,36.8,21.1,35.2,20.5,35.5">
   </path>
   <path class="st2" d="M21.4,34.8c0,0,0.6-0.6,0.9-0.6c0,0,6.3,0.6,7.4-0.2c0,0,0.9-0.2,1.2,0c0,0,0.9,0.8,0.9,1.2
			c0,0-0.1,0.6-1.2,0.3c0,0-7.2,0.1-7.5,0.1C23.2,35.5,21.2,36,21.4,34.8">
   </path>
   <path class="st5" d="M21.4,34.8c0,0,0.6-0.6,0.9-0.6c0,0,6.3,0.6,7.4-0.2c0,0,0.9-0.2,1.2,0c0,0,0.9,0.8,0.9,1.2
			c0,0-0.1,0.6-1.2,0.3c0,0-7.2,0.1-7.5,0.1C23.2,35.5,21.2,36,21.4,34.8z">
   </path>
   <path class="st2" d="M22.4,36.7c0,0,0-0.5,0.9-0.5l8.9-0.1c0,0,0.8,0.4,0.8-1.1c0,0,0.3-6.9,0.4-14.5c0-2.3,0.1-4.6,0-6.8
			c0,0-0.2-0.9-0.4-1.1c0,0,0-1,1.1-0.6c0,0,0.9,0.1,0.7,1.5l0.1,2.2c0,0-0.2,0.9,1.5,0.7c0,0,1.7,0.2,1.8,0.9c0,0,0.5,1.3-1.5,1.1
			h-1.5c0,0-0.6,0.4-0.4,1.1l-0.2,9.2c0,0-0.1,1.6,1.4,1.5c0,0,1.6-0.1,1.9,0.4c0,0,1.1,1.6-1.3,1.5c0,0-1.5-0.1-1.8,0.2
			c0,0-0.2,0.3-0.4,3.3c0,0,0.1,1.8-1.2,1.6c0,0-8.8,0.1-9.6-0.1C23.4,37.2,22.5,37.4,22.4,36.7">
   </path>
   <path class="st2" d="M11,11.8l-0.2,20.3c0,0-0.1,0.9,1.5,1.1c0,0,1.8,0.2,2.3,0c0,0,1.2-0.1,4.3,0.1c0,0,0.8,0.8,0.8-0.2
			c0,0,0.5-16.4,0.3-19.9c0,0-0.1-1.5-1.1-1.5c0,0-4.8,0.4-5.2,0l-1.9-0.5C11.7,11.2,11,11.3,11,11.8">
   </path>
   <path class="st2" d="M31.1,12.5l-0.1,20c0,0,0.5,1.8,1.3,1.6c0,0,0.1-0.4,0.2-1l0.3-19C32.8,14,32.2,11,31.1,12.5">
   </path>
   <path class="st5" d="M31.1,12.5l-0.1,20c0,0,0.5,1.8,1.3,1.6c0,0,0.1-0.4,0.2-1l0.3-19C32.8,14,32.2,11,31.1,12.5z">
   </path>
   <path class="st2" d="M21,12.7c0,0-0.2,9.5-0.1,9.9l-0.1,8l-0.3,2.8c0,0,0.4,0.6,0.7,0.2c0,0,2-0.5,3.3-0.3c0,0,4.1,0.4,4.9-0.3
			c0,0,0.6,0.3,0.8-0.7c0,0,0.3-17.7,0.1-18c0,0,0.3-2.5,0.1-2.8c0,0-0.1-0.6-1.1-0.1c0,0,0.1,0.5-5.9,0.3
			C23.4,11.7,21.1,11.7,21,12.7">
   </path>
   <path class="st3" d="M19.1,18.5l-0.6,1.2c0,0-1.4,6.1-2.1,7.4c0,0-0.1,1.3-1.2,0.3c0,0-2.5-7.8-2.6-8l-0.8-0.6
			c0,0-0.5-0.7,0.4-0.8l2.3,0.1c0,0,0.8,0.6-0.3,1.3c0,0,0.1,1,1.5,4.9c0,0,0.4,1.5,0.8,0.4l1.3-4.5l-0.4-1.3c0,0-0.4-0.6,0.2-0.7
			C17.6,18.2,18.9,18,19.1,18.5">
   </path>
   <path class="st3" d="M22.7,19.6l-0.1,6.7l-0.2,0.5c0,0-0.6,0.8-0.2,0.9c0,0-0.6,0.4,4,0.4c0,0,1.8,0.3,1.3-2c0,0-0.2-0.8-0.8,0.4
			c0,0-0.2,1-2.5,0.7c0,0-0.5-0.4-0.5-0.9v-2.8c0,0-0.1-0.7,1-0.6c0,0,1.2,0.8,1.4,0.4c0,0,0.4-1,0-1.6c0,0-0.6-0.1-0.6,0.2
			c0,0-0.4,0.8-1.5,0.3c0,0-0.5-1-0.2-1.8c0,0-0.1-1.6,0.9-1.5c0,0,1.3,0.3,1.4,0.6c0,0,0.3,0.8,0.6-0.1l-0.3-1.1
			c0,0-0.2-0.4-0.5-0.3c0,0-2.1,0.3-2.4,0.1L22,18.2c0,0-0.2,0.6,0.5,0.9C22.5,19.2,22.7,19.3,22.7,19.6">
   </path>
  </g>
 </g>
</svg>